<?xml version="1.0" encoding="UTF-8"?>
<svg version="1.1" xmlns="http://www.w3.org/2000/svg" width="20" height="20">
<path d="M0 0 C6.6 0 13.2 0 20 0 C20 6.6 20 13.2 20 20 C13.4 20 6.8 20 0 20 C0 13.4 0 6.8 0 0 Z " fill="#403F3E" transform="translate(0,0)"/>
<path d="M0 0 C6.6 0 13.2 0 20 0 C20 0.66 20 1.32 20 2 C16.66666667 3.66666667 13.33333333 5.33333333 10 7 C9.29875 7.4021875 8.5975 7.804375 7.875 8.21875 C4.91434474 9.45235636 2.84674627 8.16457802 0 7 C0 4.69 0 2.38 0 0 Z " fill="#3F3F3E" transform="translate(0,0)"/>
<path d="M0 0 C0.99 0.33 1.98 0.66 3 1 C2.48050781 1.4125 1.96101563 1.825 1.42578125 2.25 C-3.51304008 6.33981877 -6.95274589 10.35964985 -10 16 C-13.02600532 14.48699734 -13.58742015 12.00173218 -15 9 C-15.391875 8.21625 -15.78375 7.4325 -16.1875 6.625 C-16.455625 6.08875 -16.72375 5.5525 -17 5 C-14 5 -11 5 -8 5 C-5.84537139 3.80482213 -3.91189792 2.41936724 -1.90234375 0.99609375 C-1.27457031 0.66738281 -0.64679687 0.33867188 0 0 Z " fill="#58B145" transform="translate(17,2)"/>
</svg>
